<svg xmlns="http://www.w3.org/2000/svg" viewBox="0 0 1200 900" role="img" aria-label="Beef Burger Bowl">
      
    <defs>
      <linearGradient id="bg" x1="0" y1="0" x2="1" y2="1">
        <stop offset="0%" stop-color="#c0eb75"/>
        <stop offset="58%" stop-color="#ffd8a8"/>
        <stop offset="100%" stop-color="#fff9f0"/>
      </linearGradient>
      <radialGradient id="glow1" cx=".18" cy=".2" r=".5">
        <stop offset="0%" stop-color="#ffffff" stop-opacity=".9"/>
        <stop offset="100%" stop-color="#ffffff" stop-opacity="0"/>
      </radialGradient>
      <radialGradient id="glow2" cx=".82" cy=".88" r=".45">
        <stop offset="0%" stop-color="#ffffff" stop-opacity=".62"/>
        <stop offset="100%" stop-color="#ffffff" stop-opacity="0"/>
      </radialGradient>
      
    <filter id="shadow" x="-20%" y="-20%" width="140%" height="140%">
      <feDropShadow dx="0" dy="18" stdDeviation="18" flood-color="#1e2a42" flood-opacity=".18"/>
    </filter>
    <filter id="soft" x="-20%" y="-20%" width="140%" height="140%">
      <feDropShadow dx="0" dy="10" stdDeviation="12" flood-color="#1e2a42" flood-opacity=".12"/>
    </filter>
    
    </defs>
    <rect width="1200" height="900" rx="52" fill="url(#bg)"/>
    <rect width="1200" height="900" fill="url(#glow1)"/>
    <rect width="1200" height="900" fill="url(#glow2)"/>
    <g opacity=".12">
      <circle cx="1010" cy="140" r="140" fill="#ffffff"/>
      <circle cx="130" cy="720" r="180" fill="#ffffff"/>
    </g>
    
      
    <g transform="translate(64 52)">
  <rect x="0" y="0" rx="24" ry="24" width="340" height="98" fill="#ffffffd8" stroke="#ffffff" />
  <image href="../brand/logo-fit-coaching.png" x="16" y="10" width="308" height="76" preserveAspectRatio="xMinYMin meet"/>
</g>
    <text x="78" y="840" font-size="36" font-family="Inter,Arial,sans-serif" font-weight="900" fill="#1f2a44">Beef Burger Bowl</text>
    
      <ellipse cx="700" cy="510" rx="280" ry="175" fill="#ffffff" opacity=".97" filter="url(#shadow)"/>
    <ellipse cx="700" cy="500" rx="220" ry="120" fill="#f9fbff"/>
    <path d="M450 500c0 150 500 150 500 0" fill="#f4f7fb"/>
    
        <g>
          <g fill="#8b5a3c">
            <path d="M580 420c52-28 102-22 150 0 30 14 34 56 8 78-28 24-140 26-182 4-40-22-28-58 24-82z"/>
            <path d="M694 520c46-16 94 8 102 44 8 38-28 68-82 68-62 0-102-42-82-76 8-14 34-26 62-36z"/>
          </g>
          <g fill="#d7a14f">
            <rect x="806" y="430" width="44" height="44" rx="10" transform="rotate(12 806 430)"/>
            <rect x="858" y="478" width="44" height="44" rx="10" transform="rotate(-8 858 478)"/>
            <rect x="815" y="542" width="44" height="44" rx="10" transform="rotate(16 815 542)"/>
          </g>
          <g fill="#d74848">
            <circle cx="545" cy="568" r="22"/><circle cx="580" cy="590" r="16"/>
          </g>
          <g fill="#7ecb6b">
            <ellipse cx="505" cy="466" rx="38" ry="20" transform="rotate(-20 505 466)"/>
            <ellipse cx="516" cy="500" rx="28" ry="16" transform="rotate(18 516 500)"/>
          </g>
          <g fill="#a2cf43">
            <rect x="880" y="560" width="54" height="16" rx="8" transform="rotate(-18 880 560)"/>
            <rect x="907" y="585" width="54" height="16" rx="8" transform="rotate(14 907 585)"/>
          </g>
        </g>
        
    <g opacity=".92">
      <circle cx="1010" cy="660" r="15" fill="#a7e163"/>
      <circle cx="1035" cy="640" r="10" fill="#7bc96f"/>
      <circle cx="995" cy="635" r="10" fill="#7bc96f"/>
      <ellipse cx="315" cy="700" rx="26" ry="10" fill="#8bc34a" transform="rotate(-16 315 700)"/>
      <ellipse cx="343" cy="680" rx="22" ry="9" fill="#8bc34a" transform="rotate(24 343 680)"/>
    </g>
    
    </svg>