<svg xmlns="http://www.w3.org/2000/svg" viewBox="0 0 1200 900" role="img" aria-label="Chicken Rice Bowl">
      
    <defs>
      <linearGradient id="bg" x1="0" y1="0" x2="1" y2="1">
        <stop offset="0%" stop-color="#8ce99a"/>
        <stop offset="58%" stop-color="#ffe8a3"/>
        <stop offset="100%" stop-color="#fff9f0"/>
      </linearGradient>
      <radialGradient id="glow1" cx=".18" cy=".2" r=".5">
        <stop offset="0%" stop-color="#ffffff" stop-opacity=".9"/>
        <stop offset="100%" stop-color="#ffffff" stop-opacity="0"/>
      </radialGradient>
      <radialGradient id="glow2" cx=".82" cy=".88" r=".45">
        <stop offset="0%" stop-color="#ffffff" stop-opacity=".62"/>
        <stop offset="100%" stop-color="#ffffff" stop-opacity="0"/>
      </radialGradient>
      
    <filter id="shadow" x="-20%" y="-20%" width="140%" height="140%">
      <feDropShadow dx="0" dy="18" stdDeviation="18" flood-color="#1e2a42" flood-opacity=".18"/>
    </filter>
    <filter id="soft" x="-20%" y="-20%" width="140%" height="140%">
      <feDropShadow dx="0" dy="10" stdDeviation="12" flood-color="#1e2a42" flood-opacity=".12"/>
    </filter>
    
    </defs>
    <rect width="1200" height="900" rx="52" fill="url(#bg)"/>
    <rect width="1200" height="900" fill="url(#glow1)"/>
    <rect width="1200" height="900" fill="url(#glow2)"/>
    <g opacity=".12">
      <circle cx="1010" cy="140" r="140" fill="#ffffff"/>
      <circle cx="130" cy="720" r="180" fill="#ffffff"/>
    </g>
    
      
    <g transform="translate(64 52)">
  <rect x="0" y="0" rx="24" ry="24" width="340" height="98" fill="#ffffffd8" stroke="#ffffff" />
  <image href="../brand/logo-fit-coaching.png" x="16" y="10" width="308" height="76" preserveAspectRatio="xMinYMin meet"/>
</g>
    <text x="78" y="840" font-size="36" font-family="Inter,Arial,sans-serif" font-weight="900" fill="#1f2a44">Chicken Rice Bowl</text>
    
      <ellipse cx="700" cy="510" rx="280" ry="175" fill="#ffffff" opacity=".97" filter="url(#shadow)"/>
    <ellipse cx="700" cy="500" rx="220" ry="120" fill="#f9fbff"/>
    <path d="M450 500c0 150 500 150 500 0" fill="#f4f7fb"/>
    
        <g transform="translate(0 10)">
          <ellipse cx="590" cy="475" rx="88" ry="66" fill="#e9f0f4"/>
          <g fill="#f4f1dc">
            <ellipse cx="590" cy="475" rx="80" ry="58"/><circle cx="554" cy="450" r="14"/><circle cx="607" cy="444" r="12"/><circle cx="636" cy="483" r="11"/><circle cx="548" cy="500" r="12"/>
          </g>
          <g fill="#d9e65f">
            <circle cx="763" cy="448" r="28"/><circle cx="790" cy="474" r="24"/><circle cx="742" cy="494" r="25"/><circle cx="782" cy="518" r="22"/>
          </g>
          <g>
            <path d="M634 420c28-10 48 12 34 36-12 21-58 38-82 26-18-10-22-33-4-45 10-7 27-9 52-17z" fill="#d79b56"/>
            <path d="M693 438c28-10 48 12 34 36-12 21-58 38-82 26-18-10-22-33-4-45 10-7 27-9 52-17z" fill="#d48f4c"/>
            <path d="M658 485c26-14 49 5 41 28-9 24-64 46-86 30-17-13-14-34 9-45 10-5 20-8 36-13z" fill="#d89c5c"/>
          </g>
          <g fill="#ff6b6b"><circle cx="825" cy="548" r="12"/><circle cx="855" cy="532" r="10"/></g>
        </g>
        
    <g opacity=".92">
      <circle cx="1010" cy="660" r="15" fill="#a7e163"/>
      <circle cx="1035" cy="640" r="10" fill="#7bc96f"/>
      <circle cx="995" cy="635" r="10" fill="#7bc96f"/>
      <ellipse cx="315" cy="700" rx="26" ry="10" fill="#8bc34a" transform="rotate(-16 315 700)"/>
      <ellipse cx="343" cy="680" rx="22" ry="9" fill="#8bc34a" transform="rotate(24 343 680)"/>
    </g>
    
    </svg>