<svg xmlns="http://www.w3.org/2000/svg" viewBox="0 0 1200 900" role="img" aria-label="Cottage Cheese Bowl">
      
    <defs>
      <linearGradient id="bg" x1="0" y1="0" x2="1" y2="1">
        <stop offset="0%" stop-color="#b197fc"/>
        <stop offset="58%" stop-color="#c3fae8"/>
        <stop offset="100%" stop-color="#fff9f0"/>
      </linearGradient>
      <radialGradient id="glow1" cx=".18" cy=".2" r=".5">
        <stop offset="0%" stop-color="#ffffff" stop-opacity=".9"/>
        <stop offset="100%" stop-color="#ffffff" stop-opacity="0"/>
      </radialGradient>
      <radialGradient id="glow2" cx=".82" cy=".88" r=".45">
        <stop offset="0%" stop-color="#ffffff" stop-opacity=".62"/>
        <stop offset="100%" stop-color="#ffffff" stop-opacity="0"/>
      </radialGradient>
      
    <filter id="shadow" x="-20%" y="-20%" width="140%" height="140%">
      <feDropShadow dx="0" dy="18" stdDeviation="18" flood-color="#1e2a42" flood-opacity=".18"/>
    </filter>
    <filter id="soft" x="-20%" y="-20%" width="140%" height="140%">
      <feDropShadow dx="0" dy="10" stdDeviation="12" flood-color="#1e2a42" flood-opacity=".12"/>
    </filter>
    
    </defs>
    <rect width="1200" height="900" rx="52" fill="url(#bg)"/>
    <rect width="1200" height="900" fill="url(#glow1)"/>
    <rect width="1200" height="900" fill="url(#glow2)"/>
    <g opacity=".12">
      <circle cx="1010" cy="140" r="140" fill="#ffffff"/>
      <circle cx="130" cy="720" r="180" fill="#ffffff"/>
    </g>
    
      
    <g transform="translate(64 52)">
  <rect x="0" y="0" rx="24" ry="24" width="340" height="98" fill="#ffffffd8" stroke="#ffffff" />
  <image href="../brand/logo-fit-coaching.png" x="16" y="10" width="308" height="76" preserveAspectRatio="xMinYMin meet"/>
</g>
    <text x="78" y="840" font-size="36" font-family="Inter,Arial,sans-serif" font-weight="900" fill="#1f2a44">Cottage Cheese Bowl</text>
    
      <ellipse cx="700" cy="510" rx="280" ry="175" fill="#ffffff" opacity=".97" filter="url(#shadow)"/>
    <ellipse cx="700" cy="500" rx="220" ry="120" fill="#f9fbff"/>
    <path d="M450 500c0 150 500 150 500 0" fill="#f4f7fb"/>
    
        <g>
          <g fill="#ffffff">
            <circle cx="610" cy="465" r="52"/><circle cx="685" cy="442" r="48"/><circle cx="764" cy="473" r="50"/><circle cx="667" cy="516" r="44"/>
          </g>
          <g fill="#8bd34f">
            <ellipse cx="818" cy="430" rx="40" ry="24"/><ellipse cx="818" cy="430" rx="22" ry="11" fill="#5fae31"/>
            <ellipse cx="850" cy="468" rx="32" ry="18"/><ellipse cx="850" cy="468" rx="18" ry="8" fill="#5fae31"/>
          </g>
          <g fill="#8c5b32">
            <path d="M548 545c12-24 34-20 42 2 8 18-4 44-24 46-22 2-30-24-18-48z"/>
            <path d="M598 578c12-24 34-20 42 2 8 18-4 44-24 46-22 2-30-24-18-48z"/>
            <path d="M646 548c12-24 34-20 42 2 8 18-4 44-24 46-22 2-30-24-18-48z"/>
          </g>
          <path d="M807 545c32-4 60 2 88 18" stroke="#f0c271" stroke-width="10" stroke-linecap="round"/>
        </g>
        
    <g opacity=".92">
      <circle cx="1010" cy="660" r="15" fill="#a7e163"/>
      <circle cx="1035" cy="640" r="10" fill="#7bc96f"/>
      <circle cx="995" cy="635" r="10" fill="#7bc96f"/>
      <ellipse cx="315" cy="700" rx="26" ry="10" fill="#8bc34a" transform="rotate(-16 315 700)"/>
      <ellipse cx="343" cy="680" rx="22" ry="9" fill="#8bc34a" transform="rotate(24 343 680)"/>
    </g>
    
    </svg>