<svg xmlns="http://www.w3.org/2000/svg" viewBox="0 0 1200 900" role="img" aria-label="Ei & Avocado Toast">
      
    <defs>
      <linearGradient id="bg" x1="0" y1="0" x2="1" y2="1">
        <stop offset="0%" stop-color="#69db7c"/>
        <stop offset="58%" stop-color="#ffe69c"/>
        <stop offset="100%" stop-color="#fff9f0"/>
      </linearGradient>
      <radialGradient id="glow1" cx=".18" cy=".2" r=".5">
        <stop offset="0%" stop-color="#ffffff" stop-opacity=".9"/>
        <stop offset="100%" stop-color="#ffffff" stop-opacity="0"/>
      </radialGradient>
      <radialGradient id="glow2" cx=".82" cy=".88" r=".45">
        <stop offset="0%" stop-color="#ffffff" stop-opacity=".62"/>
        <stop offset="100%" stop-color="#ffffff" stop-opacity="0"/>
      </radialGradient>
      
    <filter id="shadow" x="-20%" y="-20%" width="140%" height="140%">
      <feDropShadow dx="0" dy="18" stdDeviation="18" flood-color="#1e2a42" flood-opacity=".18"/>
    </filter>
    <filter id="soft" x="-20%" y="-20%" width="140%" height="140%">
      <feDropShadow dx="0" dy="10" stdDeviation="12" flood-color="#1e2a42" flood-opacity=".12"/>
    </filter>
    
    </defs>
    <rect width="1200" height="900" rx="52" fill="url(#bg)"/>
    <rect width="1200" height="900" fill="url(#glow1)"/>
    <rect width="1200" height="900" fill="url(#glow2)"/>
    <g opacity=".12">
      <circle cx="1010" cy="140" r="140" fill="#ffffff"/>
      <circle cx="130" cy="720" r="180" fill="#ffffff"/>
    </g>
    
      
    <g transform="translate(64 52)">
  <rect x="0" y="0" rx="24" ry="24" width="340" height="98" fill="#ffffffd8" stroke="#ffffff" />
  <image href="../brand/logo-fit-coaching.png" x="16" y="10" width="308" height="76" preserveAspectRatio="xMinYMin meet"/>
</g>
    <text x="78" y="840" font-size="36" font-family="Inter,Arial,sans-serif" font-weight="900" fill="#1f2a44">Ei & Avocado Toast</text>
    
      <g transform="translate(390 250)" filter="url(#shadow)">
      <rect x="0" y="0" width="620" height="410" rx="46" fill="#d9a067"/>
      <rect x="24" y="24" width="572" height="362" rx="34" fill="#e5b179"/>
      <circle cx="560" cy="68" r="18" fill="#c58a53"/>
    </g>
        <g>
          <g filter="url(#soft)">
            <rect x="505" y="350" width="188" height="148" rx="28" fill="#f1d6a5"/>
            <rect x="716" y="350" width="188" height="148" rx="28" fill="#f1d6a5"/>
          </g>
          <g>
            <path d="M526 386c42-38 104-38 146 0 16 14 14 42-4 54-24 16-118 16-142 0-18-12-20-40 0-54z" fill="#88d67d"/>
            <path d="M740 376c46-34 102-34 142 0 14 12 16 34 2 48-18 18-112 22-142 6-22-12-20-40-2-54z" fill="#88d67d"/>
            <circle cx="803" cy="424" r="44" fill="#fdfbf7"/>
            <circle cx="803" cy="424" r="21" fill="#f7cd51"/>
          </g>
          <g>
            <circle cx="613" cy="439" r="44" fill="#fdfbf7"/>
            <circle cx="613" cy="439" r="21" fill="#f7cd51"/>
            <path d="M522 520c80-24 150-24 226 0" stroke="#ff7b6b" stroke-width="8" stroke-linecap="round"/>
          </g>
        </g>
        
    <g opacity=".92">
      <circle cx="1010" cy="660" r="15" fill="#a7e163"/>
      <circle cx="1035" cy="640" r="10" fill="#7bc96f"/>
      <circle cx="995" cy="635" r="10" fill="#7bc96f"/>
      <ellipse cx="315" cy="700" rx="26" ry="10" fill="#8bc34a" transform="rotate(-16 315 700)"/>
      <ellipse cx="343" cy="680" rx="22" ry="9" fill="#8bc34a" transform="rotate(24 343 680)"/>
    </g>
    
    </svg>