<svg xmlns="http://www.w3.org/2000/svg" viewBox="0 0 1200 900" role="img" aria-label="Overnight Oats">
      
    <defs>
      <linearGradient id="bg" x1="0" y1="0" x2="1" y2="1">
        <stop offset="0%" stop-color="#ffd43b"/>
        <stop offset="58%" stop-color="#ffa94d"/>
        <stop offset="100%" stop-color="#fff9f0"/>
      </linearGradient>
      <radialGradient id="glow1" cx=".18" cy=".2" r=".5">
        <stop offset="0%" stop-color="#ffffff" stop-opacity=".9"/>
        <stop offset="100%" stop-color="#ffffff" stop-opacity="0"/>
      </radialGradient>
      <radialGradient id="glow2" cx=".82" cy=".88" r=".45">
        <stop offset="0%" stop-color="#ffffff" stop-opacity=".62"/>
        <stop offset="100%" stop-color="#ffffff" stop-opacity="0"/>
      </radialGradient>
      
    <filter id="shadow" x="-20%" y="-20%" width="140%" height="140%">
      <feDropShadow dx="0" dy="18" stdDeviation="18" flood-color="#1e2a42" flood-opacity=".18"/>
    </filter>
    <filter id="soft" x="-20%" y="-20%" width="140%" height="140%">
      <feDropShadow dx="0" dy="10" stdDeviation="12" flood-color="#1e2a42" flood-opacity=".12"/>
    </filter>
    
    </defs>
    <rect width="1200" height="900" rx="52" fill="url(#bg)"/>
    <rect width="1200" height="900" fill="url(#glow1)"/>
    <rect width="1200" height="900" fill="url(#glow2)"/>
    <g opacity=".12">
      <circle cx="1010" cy="140" r="140" fill="#ffffff"/>
      <circle cx="130" cy="720" r="180" fill="#ffffff"/>
    </g>
    
      
    <g transform="translate(64 52)">
  <rect x="0" y="0" rx="24" ry="24" width="340" height="98" fill="#ffffffd8" stroke="#ffffff" />
  <image href="../brand/logo-fit-coaching.png" x="16" y="10" width="308" height="76" preserveAspectRatio="xMinYMin meet"/>
</g>
    <text x="78" y="840" font-size="36" font-family="Inter,Arial,sans-serif" font-weight="900" fill="#1f2a44">Overnight Oats</text>
    
      <g transform="translate(520 220)" filter="url(#shadow)">
      <rect x="0" y="40" width="290" height="430" rx="46" fill="#ffffffee"/>
      <rect x="22" y="62" width="246" height="386" rx="34" fill="#f8fbff"/>
    </g>
        <g transform="translate(520 220)">
          <rect x="28" y="145" width="234" height="280" rx="30" fill="#efe5c7"/>
          <g fill="#d7b989">
            <circle cx="82" cy="215" r="18"/><circle cx="114" cy="238" r="14"/><circle cx="182" cy="212" r="15"/><circle cx="210" cy="252" r="18"/><circle cx="142" cy="286" r="16"/>
          </g>
          <g fill="#e6994b"><circle cx="86" cy="332" r="24"/><circle cx="140" cy="360" r="20"/><circle cx="198" cy="338" r="23"/></g>
          <g fill="#f8f2df">
            <path d="M28 130c34-22 94-24 128-10 30 12 52 18 106 18v44H28z"/>
          </g>
          <path d="M200 32v118" stroke="#8c6b47" stroke-width="12" stroke-linecap="round"/>
          <path d="M200 32c24 4 46 0 64-10" stroke="#8c6b47" stroke-width="12" stroke-linecap="round"/>
          <g stroke="#7a5a3d" stroke-width="3" opacity=".5">
            <path d="M76 178c6 12 10 24 8 38"/><path d="M150 172c4 12 6 24 4 36"/><path d="M212 180c4 10 4 20 2 28"/>
          </g>
        </g>
        
    <g opacity=".92">
      <circle cx="1010" cy="660" r="15" fill="#a7e163"/>
      <circle cx="1035" cy="640" r="10" fill="#7bc96f"/>
      <circle cx="995" cy="635" r="10" fill="#7bc96f"/>
      <ellipse cx="315" cy="700" rx="26" ry="10" fill="#8bc34a" transform="rotate(-16 315 700)"/>
      <ellipse cx="343" cy="680" rx="22" ry="9" fill="#8bc34a" transform="rotate(24 343 680)"/>
    </g>
    
    </svg>