<svg xmlns="http://www.w3.org/2000/svg" viewBox="0 0 1200 900" role="img" aria-label="Protein Pancakes">
      
    <defs>
      <linearGradient id="bg" x1="0" y1="0" x2="1" y2="1">
        <stop offset="0%" stop-color="#7bc6ff"/>
        <stop offset="58%" stop-color="#f3d08a"/>
        <stop offset="100%" stop-color="#fff9f0"/>
      </linearGradient>
      <radialGradient id="glow1" cx=".18" cy=".2" r=".5">
        <stop offset="0%" stop-color="#ffffff" stop-opacity=".9"/>
        <stop offset="100%" stop-color="#ffffff" stop-opacity="0"/>
      </radialGradient>
      <radialGradient id="glow2" cx=".82" cy=".88" r=".45">
        <stop offset="0%" stop-color="#ffffff" stop-opacity=".62"/>
        <stop offset="100%" stop-color="#ffffff" stop-opacity="0"/>
      </radialGradient>
      
    <filter id="shadow" x="-20%" y="-20%" width="140%" height="140%">
      <feDropShadow dx="0" dy="18" stdDeviation="18" flood-color="#1e2a42" flood-opacity=".18"/>
    </filter>
    <filter id="soft" x="-20%" y="-20%" width="140%" height="140%">
      <feDropShadow dx="0" dy="10" stdDeviation="12" flood-color="#1e2a42" flood-opacity=".12"/>
    </filter>
    
    </defs>
    <rect width="1200" height="900" rx="52" fill="url(#bg)"/>
    <rect width="1200" height="900" fill="url(#glow1)"/>
    <rect width="1200" height="900" fill="url(#glow2)"/>
    <g opacity=".12">
      <circle cx="1010" cy="140" r="140" fill="#ffffff"/>
      <circle cx="130" cy="720" r="180" fill="#ffffff"/>
    </g>
    
      
    <g transform="translate(64 52)">
  <rect x="0" y="0" rx="24" ry="24" width="340" height="98" fill="#ffffffd8" stroke="#ffffff" />
  <image href="../brand/logo-fit-coaching.png" x="16" y="10" width="308" height="76" preserveAspectRatio="xMinYMin meet"/>
</g>
    <text x="78" y="840" font-size="36" font-family="Inter,Arial,sans-serif" font-weight="900" fill="#1f2a44">Protein Pancakes</text>
    
      <ellipse cx="690" cy="470" rx="315" ry="215" fill="#ffffff" opacity=".95" filter="url(#shadow)"/>
    <ellipse cx="690" cy="470" rx="260" ry="165" fill="#fbfbfd"/>
    
        <g transform="translate(540 300)">
          <ellipse cx="150" cy="300" rx="190" ry="32" fill="#edd7a5" opacity=".34"/>
          <ellipse cx="150" cy="255" rx="150" ry="38" fill="#d9a563"/>
          <ellipse cx="150" cy="220" rx="154" ry="38" fill="#e2b06c"/>
          <ellipse cx="150" cy="185" rx="148" ry="38" fill="#d89e57"/>
          <path d="M65 146c22-18 112-18 168 0 18 6 26 26 12 34-24 14-164 14-192 0-18-9-10-27 12-34z" fill="#e8b26d"/>
          <path d="M108 148c28-15 97-15 131 0 14 6 18 20 8 26-25 14-123 14-149 0-12-6-8-20 10-26z" fill="#ffe08a"/>
          <g>
            <ellipse cx="186" cy="120" rx="68" ry="18" fill="#fff2c1"/>
            <path d="M155 88c22-10 44 0 44 15 0 15-30 22-52 12-18-8-17-20 8-27z" fill="#fff8dd"/>
            <path d="M205 114c20 6 16 18 8 36s-18 36-18 44c0 8 12 18 18 24" fill="none" stroke="#b7742a" stroke-width="10" stroke-linecap="round"/>
          </g>
          <g fill="#5e87ff">
            <circle cx="30" cy="104" r="16"/><circle cx="70" cy="88" r="14"/><circle cx="254" cy="100" r="16"/><circle cx="285" cy="125" r="13"/>
          </g>
          <g fill="#f7df6b">
            <circle cx="96" cy="94" r="20"/><circle cx="238" cy="86" r="20"/>
          </g>
        </g>
        
    <g opacity=".92">
      <circle cx="1010" cy="660" r="15" fill="#a7e163"/>
      <circle cx="1035" cy="640" r="10" fill="#7bc96f"/>
      <circle cx="995" cy="635" r="10" fill="#7bc96f"/>
      <ellipse cx="315" cy="700" rx="26" ry="10" fill="#8bc34a" transform="rotate(-16 315 700)"/>
      <ellipse cx="343" cy="680" rx="22" ry="9" fill="#8bc34a" transform="rotate(24 343 680)"/>
    </g>
    
    </svg>