<svg xmlns="http://www.w3.org/2000/svg" viewBox="0 0 1200 900" role="img" aria-label="Lachs mit Süßkartoffel">
      
    <defs>
      <linearGradient id="bg" x1="0" y1="0" x2="1" y2="1">
        <stop offset="0%" stop-color="#ffa94d"/>
        <stop offset="58%" stop-color="#ffd8a8"/>
        <stop offset="100%" stop-color="#fff9f0"/>
      </linearGradient>
      <radialGradient id="glow1" cx=".18" cy=".2" r=".5">
        <stop offset="0%" stop-color="#ffffff" stop-opacity=".9"/>
        <stop offset="100%" stop-color="#ffffff" stop-opacity="0"/>
      </radialGradient>
      <radialGradient id="glow2" cx=".82" cy=".88" r=".45">
        <stop offset="0%" stop-color="#ffffff" stop-opacity=".62"/>
        <stop offset="100%" stop-color="#ffffff" stop-opacity="0"/>
      </radialGradient>
      
    <filter id="shadow" x="-20%" y="-20%" width="140%" height="140%">
      <feDropShadow dx="0" dy="18" stdDeviation="18" flood-color="#1e2a42" flood-opacity=".18"/>
    </filter>
    <filter id="soft" x="-20%" y="-20%" width="140%" height="140%">
      <feDropShadow dx="0" dy="10" stdDeviation="12" flood-color="#1e2a42" flood-opacity=".12"/>
    </filter>
    
    </defs>
    <rect width="1200" height="900" rx="52" fill="url(#bg)"/>
    <rect width="1200" height="900" fill="url(#glow1)"/>
    <rect width="1200" height="900" fill="url(#glow2)"/>
    <g opacity=".12">
      <circle cx="1010" cy="140" r="140" fill="#ffffff"/>
      <circle cx="130" cy="720" r="180" fill="#ffffff"/>
    </g>
    
      
    <g transform="translate(64 52)">
  <rect x="0" y="0" rx="24" ry="24" width="340" height="98" fill="#ffffffd8" stroke="#ffffff" />
  <image href="../brand/logo-fit-coaching.png" x="16" y="10" width="308" height="76" preserveAspectRatio="xMinYMin meet"/>
</g>
    <text x="78" y="840" font-size="36" font-family="Inter,Arial,sans-serif" font-weight="900" fill="#1f2a44">Lachs mit Süßkartoffel</text>
    
      <ellipse cx="690" cy="470" rx="315" ry="215" fill="#ffffff" opacity=".95" filter="url(#shadow)"/>
    <ellipse cx="690" cy="470" rx="260" ry="165" fill="#fbfbfd"/>
    
        <g transform="translate(0 0)">
          <path d="M566 420c18-38 88-64 156-52 74 12 108 70 76 122-26 42-86 66-148 60-86-10-117-71-84-130z" fill="#ff8d5f"/>
          <path d="M594 452c46-20 122-18 174 12" stroke="#ffd1c2" stroke-width="10" stroke-linecap="round"/>
          <path d="M588 498c54-22 132-16 176 16" stroke="#ffd1c2" stroke-width="10" stroke-linecap="round"/>
          <g fill="#f2a65a">
            <rect x="770" y="403" width="48" height="48" rx="10" transform="rotate(12 770 403)"/>
            <rect x="825" y="454" width="48" height="48" rx="10" transform="rotate(-8 825 454)"/>
            <rect x="777" y="515" width="48" height="48" rx="10" transform="rotate(16 777 515)"/>
            <rect x="850" y="530" width="48" height="48" rx="10" transform="rotate(-18 850 530)"/>
          </g>
          <g fill="#6fca7a">
            <ellipse cx="855" cy="410" rx="34" ry="18" transform="rotate(-20 855 410)"/>
            <ellipse cx="895" cy="440" rx="34" ry="18" transform="rotate(28 895 440)"/>
            <ellipse cx="866" cy="584" rx="34" ry="18" transform="rotate(-24 866 584)"/>
          </g>
          <path d="M524 560c26-50 50-76 90-106" fill="none" stroke="#ffe56f" stroke-width="16" stroke-linecap="round"/>
        </g>
        
    <g opacity=".92">
      <circle cx="1010" cy="660" r="15" fill="#a7e163"/>
      <circle cx="1035" cy="640" r="10" fill="#7bc96f"/>
      <circle cx="995" cy="635" r="10" fill="#7bc96f"/>
      <ellipse cx="315" cy="700" rx="26" ry="10" fill="#8bc34a" transform="rotate(-16 315 700)"/>
      <ellipse cx="343" cy="680" rx="22" ry="9" fill="#8bc34a" transform="rotate(24 343 680)"/>
    </g>
    
    </svg>