<svg xmlns="http://www.w3.org/2000/svg" viewBox="0 0 1200 900" role="img" aria-label="Garnelen Couscous Fit">
      
    <defs>
      <linearGradient id="bg" x1="0" y1="0" x2="1" y2="1">
        <stop offset="0%" stop-color="#74c0fc"/>
        <stop offset="58%" stop-color="#ffd6a5"/>
        <stop offset="100%" stop-color="#fff9f0"/>
      </linearGradient>
      <radialGradient id="glow1" cx=".18" cy=".2" r=".5">
        <stop offset="0%" stop-color="#ffffff" stop-opacity=".9"/>
        <stop offset="100%" stop-color="#ffffff" stop-opacity="0"/>
      </radialGradient>
      <radialGradient id="glow2" cx=".82" cy=".88" r=".45">
        <stop offset="0%" stop-color="#ffffff" stop-opacity=".62"/>
        <stop offset="100%" stop-color="#ffffff" stop-opacity="0"/>
      </radialGradient>
      
    <filter id="shadow" x="-20%" y="-20%" width="140%" height="140%">
      <feDropShadow dx="0" dy="18" stdDeviation="18" flood-color="#1e2a42" flood-opacity=".18"/>
    </filter>
    <filter id="soft" x="-20%" y="-20%" width="140%" height="140%">
      <feDropShadow dx="0" dy="10" stdDeviation="12" flood-color="#1e2a42" flood-opacity=".12"/>
    </filter>
    
    </defs>
    <rect width="1200" height="900" rx="52" fill="url(#bg)"/>
    <rect width="1200" height="900" fill="url(#glow1)"/>
    <rect width="1200" height="900" fill="url(#glow2)"/>
    <g opacity=".12">
      <circle cx="1010" cy="140" r="140" fill="#ffffff"/>
      <circle cx="130" cy="720" r="180" fill="#ffffff"/>
    </g>
    
      
    <g transform="translate(64 52)">
  <rect x="0" y="0" rx="24" ry="24" width="340" height="98" fill="#ffffffd8" stroke="#ffffff" />
  <image href="../brand/logo-fit-coaching.png" x="16" y="10" width="308" height="76" preserveAspectRatio="xMinYMin meet"/>
</g>
    <text x="78" y="840" font-size="36" font-family="Inter,Arial,sans-serif" font-weight="900" fill="#1f2a44">Garnelen Couscous Fit</text>
    
      <ellipse cx="700" cy="510" rx="280" ry="175" fill="#ffffff" opacity=".97" filter="url(#shadow)"/>
    <ellipse cx="700" cy="500" rx="220" ry="120" fill="#f9fbff"/>
    <path d="M450 500c0 150 500 150 500 0" fill="#f4f7fb"/>
    
        <g>
          <g fill="#e8d39a">
            <circle cx="592" cy="465" r="54"/><circle cx="658" cy="448" r="50"/><circle cx="730" cy="466" r="48"/><circle cx="802" cy="486" r="46"/><circle cx="667" cy="514" r="44"/>
          </g>
          <g fill="#ff9c73">
            <path d="M560 412c20-24 62-20 80 4 12 18 4 42-18 54-32 18-60 10-72-12-10-18-8-30 10-46z"/>
            <circle cx="627" cy="448" r="8" fill="#1f2a44"/>
            <path d="M734 420c20-24 62-20 80 4 12 18 4 42-18 54-32 18-60 10-72-12-10-18-8-30 10-46z"/>
            <circle cx="801" cy="456" r="8" fill="#1f2a44"/>
            <path d="M650 534c20-24 62-20 80 4 12 18 4 42-18 54-32 18-60 10-72-12-10-18-8-30 10-46z"/>
            <circle cx="717" cy="570" r="8" fill="#1f2a44"/>
          </g>
          <g fill="#ef5350">
            <circle cx="848" cy="442" r="12"/><circle cx="882" cy="466" r="11"/><circle cx="844" cy="534" r="12"/>
          </g>
          <path d="M882 600c30-10 62-34 86-64" fill="none" stroke="#ffe46d" stroke-width="12" stroke-linecap="round"/>
        </g>
        
    <g opacity=".92">
      <circle cx="1010" cy="660" r="15" fill="#a7e163"/>
      <circle cx="1035" cy="640" r="10" fill="#7bc96f"/>
      <circle cx="995" cy="635" r="10" fill="#7bc96f"/>
      <ellipse cx="315" cy="700" rx="26" ry="10" fill="#8bc34a" transform="rotate(-16 315 700)"/>
      <ellipse cx="343" cy="680" rx="22" ry="9" fill="#8bc34a" transform="rotate(24 343 680)"/>
    </g>
    
    </svg>