<svg xmlns="http://www.w3.org/2000/svg" viewBox="0 0 1200 900" role="img" aria-label="Skyr Berry Cup">
      
    <defs>
      <linearGradient id="bg" x1="0" y1="0" x2="1" y2="1">
        <stop offset="0%" stop-color="#e599f7"/>
        <stop offset="58%" stop-color="#8bd3ff"/>
        <stop offset="100%" stop-color="#fff9f0"/>
      </linearGradient>
      <radialGradient id="glow1" cx=".18" cy=".2" r=".5">
        <stop offset="0%" stop-color="#ffffff" stop-opacity=".9"/>
        <stop offset="100%" stop-color="#ffffff" stop-opacity="0"/>
      </radialGradient>
      <radialGradient id="glow2" cx=".82" cy=".88" r=".45">
        <stop offset="0%" stop-color="#ffffff" stop-opacity=".62"/>
        <stop offset="100%" stop-color="#ffffff" stop-opacity="0"/>
      </radialGradient>
      
    <filter id="shadow" x="-20%" y="-20%" width="140%" height="140%">
      <feDropShadow dx="0" dy="18" stdDeviation="18" flood-color="#1e2a42" flood-opacity=".18"/>
    </filter>
    <filter id="soft" x="-20%" y="-20%" width="140%" height="140%">
      <feDropShadow dx="0" dy="10" stdDeviation="12" flood-color="#1e2a42" flood-opacity=".12"/>
    </filter>
    
    </defs>
    <rect width="1200" height="900" rx="52" fill="url(#bg)"/>
    <rect width="1200" height="900" fill="url(#glow1)"/>
    <rect width="1200" height="900" fill="url(#glow2)"/>
    <g opacity=".12">
      <circle cx="1010" cy="140" r="140" fill="#ffffff"/>
      <circle cx="130" cy="720" r="180" fill="#ffffff"/>
    </g>
    
      
    <g transform="translate(64 52)">
  <rect x="0" y="0" rx="24" ry="24" width="340" height="98" fill="#ffffffd8" stroke="#ffffff" />
  <image href="../brand/logo-fit-coaching.png" x="16" y="10" width="308" height="76" preserveAspectRatio="xMinYMin meet"/>
</g>
    <text x="78" y="840" font-size="36" font-family="Inter,Arial,sans-serif" font-weight="900" fill="#1f2a44">Skyr Berry Cup</text>
    
      <g transform="translate(520 220)" filter="url(#shadow)">
      <rect x="0" y="40" width="290" height="430" rx="46" fill="#ffffffee"/>
      <rect x="22" y="62" width="246" height="386" rx="34" fill="#f8fbff"/>
    </g>
        <g transform="translate(520 220)">
          <rect x="28" y="190" width="234" height="236" rx="28" fill="#fefefe"/>
          <g fill="#c83a7b">
            <circle cx="60" cy="248" r="26"/><circle cx="98" cy="284" r="22"/><circle cx="188" cy="260" r="22"/><circle cx="223" cy="305" r="24"/><circle cx="150" cy="328" r="22"/>
          </g>
          <g fill="#5b7cff">
            <circle cx="86" cy="205" r="12"/><circle cx="132" cy="220" r="12"/><circle cx="190" cy="205" r="12"/><circle cx="220" cy="236" r="12"/>
          </g>
          <path d="M28 170c20-24 214-24 234 0v52H28z" fill="#fafcff"/>
          <path d="M46 118c36-12 72-10 108 4 24 10 38 18 74 18l-18 40H52z" fill="#ffffffcc"/>
          <path d="M130 22v108" stroke="#ffb36b" stroke-width="12" stroke-linecap="round"/>
          <path d="M130 22c26 8 56 2 76-10" stroke="#ffb36b" stroke-width="12" stroke-linecap="round"/>
        </g>
        
    <g opacity=".92">
      <circle cx="1010" cy="660" r="15" fill="#a7e163"/>
      <circle cx="1035" cy="640" r="10" fill="#7bc96f"/>
      <circle cx="995" cy="635" r="10" fill="#7bc96f"/>
      <ellipse cx="315" cy="700" rx="26" ry="10" fill="#8bc34a" transform="rotate(-16 315 700)"/>
      <ellipse cx="343" cy="680" rx="22" ry="9" fill="#8bc34a" transform="rotate(24 343 680)"/>
    </g>
    
    </svg>