<svg xmlns="http://www.w3.org/2000/svg" viewBox="0 0 1200 900" role="img" aria-label="Thunfisch Wrap">
      
    <defs>
      <linearGradient id="bg" x1="0" y1="0" x2="1" y2="1">
        <stop offset="0%" stop-color="#66d9e8"/>
        <stop offset="58%" stop-color="#ffd6a5"/>
        <stop offset="100%" stop-color="#fff9f0"/>
      </linearGradient>
      <radialGradient id="glow1" cx=".18" cy=".2" r=".5">
        <stop offset="0%" stop-color="#ffffff" stop-opacity=".9"/>
        <stop offset="100%" stop-color="#ffffff" stop-opacity="0"/>
      </radialGradient>
      <radialGradient id="glow2" cx=".82" cy=".88" r=".45">
        <stop offset="0%" stop-color="#ffffff" stop-opacity=".62"/>
        <stop offset="100%" stop-color="#ffffff" stop-opacity="0"/>
      </radialGradient>
      
    <filter id="shadow" x="-20%" y="-20%" width="140%" height="140%">
      <feDropShadow dx="0" dy="18" stdDeviation="18" flood-color="#1e2a42" flood-opacity=".18"/>
    </filter>
    <filter id="soft" x="-20%" y="-20%" width="140%" height="140%">
      <feDropShadow dx="0" dy="10" stdDeviation="12" flood-color="#1e2a42" flood-opacity=".12"/>
    </filter>
    
    </defs>
    <rect width="1200" height="900" rx="52" fill="url(#bg)"/>
    <rect width="1200" height="900" fill="url(#glow1)"/>
    <rect width="1200" height="900" fill="url(#glow2)"/>
    <g opacity=".12">
      <circle cx="1010" cy="140" r="140" fill="#ffffff"/>
      <circle cx="130" cy="720" r="180" fill="#ffffff"/>
    </g>
    
      
    <g transform="translate(64 52)">
  <rect x="0" y="0" rx="24" ry="24" width="340" height="98" fill="#ffffffd8" stroke="#ffffff" />
  <image href="../brand/logo-fit-coaching.png" x="16" y="10" width="308" height="76" preserveAspectRatio="xMinYMin meet"/>
</g>
    <text x="78" y="840" font-size="36" font-family="Inter,Arial,sans-serif" font-weight="900" fill="#1f2a44">Thunfisch Wrap</text>
    
      <g transform="translate(390 250)" filter="url(#shadow)">
      <rect x="0" y="0" width="620" height="410" rx="46" fill="#d9a067"/>
      <rect x="24" y="24" width="572" height="362" rx="34" fill="#e5b179"/>
      <circle cx="560" cy="68" r="18" fill="#c58a53"/>
    </g>
        <g transform="translate(0 10)">
          <g filter="url(#soft)">
            <path d="M580 360c62-20 112-2 188 72 14 14 16 38 2 52l-54 54c-14 14-38 12-52-2-72-72-92-120-84-176z" fill="#f8e7be"/>
            <path d="M722 466c44 0 100 34 124 82 9 18-8 38-27 34-38-7-82-29-122-69z" fill="#f8e7be"/>
          </g>
          <g>
            <path d="M612 404c30-8 74 2 116 38" fill="none" stroke="#7ac76f" stroke-width="24" stroke-linecap="round"/>
            <path d="M624 434c34-6 76 8 108 34" fill="none" stroke="#ef5350" stroke-width="16" stroke-linecap="round"/>
            <path d="M635 460c34-4 84 12 104 32" fill="none" stroke="#fdfdfd" stroke-width="20" stroke-linecap="round"/>
          </g>
          <g>
            <path d="M466 500c70-14 112 0 170 56 14 14 14 34 0 48l-50 50c-14 14-34 14-48 0-56-58-70-100-72-154z" fill="#f7e1b3"/>
            <path d="M565 596c34 2 74 26 96 60 10 16-5 34-23 30-32-6-62-23-92-52z" fill="#f7e1b3"/>
            <path d="M500 540c32-8 60 3 98 34" fill="none" stroke="#7ac76f" stroke-width="22" stroke-linecap="round"/>
            <path d="M510 565c32-6 64 6 92 30" fill="none" stroke="#ef5350" stroke-width="14" stroke-linecap="round"/>
          </g>
        </g>
        
    <g opacity=".92">
      <circle cx="1010" cy="660" r="15" fill="#a7e163"/>
      <circle cx="1035" cy="640" r="10" fill="#7bc96f"/>
      <circle cx="995" cy="635" r="10" fill="#7bc96f"/>
      <ellipse cx="315" cy="700" rx="26" ry="10" fill="#8bc34a" transform="rotate(-16 315 700)"/>
      <ellipse cx="343" cy="680" rx="22" ry="9" fill="#8bc34a" transform="rotate(24 343 680)"/>
    </g>
    
    </svg>