<svg xmlns="http://www.w3.org/2000/svg" viewBox="0 0 1200 900" role="img" aria-label="Puten Pasta Fit">
      
    <defs>
      <linearGradient id="bg" x1="0" y1="0" x2="1" y2="1">
        <stop offset="0%" stop-color="#ff8787"/>
        <stop offset="58%" stop-color="#ffd2d2"/>
        <stop offset="100%" stop-color="#fff9f0"/>
      </linearGradient>
      <radialGradient id="glow1" cx=".18" cy=".2" r=".5">
        <stop offset="0%" stop-color="#ffffff" stop-opacity=".9"/>
        <stop offset="100%" stop-color="#ffffff" stop-opacity="0"/>
      </radialGradient>
      <radialGradient id="glow2" cx=".82" cy=".88" r=".45">
        <stop offset="0%" stop-color="#ffffff" stop-opacity=".62"/>
        <stop offset="100%" stop-color="#ffffff" stop-opacity="0"/>
      </radialGradient>
      
    <filter id="shadow" x="-20%" y="-20%" width="140%" height="140%">
      <feDropShadow dx="0" dy="18" stdDeviation="18" flood-color="#1e2a42" flood-opacity=".18"/>
    </filter>
    <filter id="soft" x="-20%" y="-20%" width="140%" height="140%">
      <feDropShadow dx="0" dy="10" stdDeviation="12" flood-color="#1e2a42" flood-opacity=".12"/>
    </filter>
    
    </defs>
    <rect width="1200" height="900" rx="52" fill="url(#bg)"/>
    <rect width="1200" height="900" fill="url(#glow1)"/>
    <rect width="1200" height="900" fill="url(#glow2)"/>
    <g opacity=".12">
      <circle cx="1010" cy="140" r="140" fill="#ffffff"/>
      <circle cx="130" cy="720" r="180" fill="#ffffff"/>
    </g>
    
      
    <g transform="translate(64 52)">
  <rect x="0" y="0" rx="24" ry="24" width="340" height="98" fill="#ffffffd8" stroke="#ffffff" />
  <image href="../brand/logo-fit-coaching.png" x="16" y="10" width="308" height="76" preserveAspectRatio="xMinYMin meet"/>
</g>
    <text x="78" y="840" font-size="36" font-family="Inter,Arial,sans-serif" font-weight="900" fill="#1f2a44">Puten Pasta Fit</text>
    
      <ellipse cx="700" cy="510" rx="280" ry="175" fill="#ffffff" opacity=".97" filter="url(#shadow)"/>
    <ellipse cx="700" cy="500" rx="220" ry="120" fill="#f9fbff"/>
    <path d="M450 500c0 150 500 150 500 0" fill="#f4f7fb"/>
    
        <g>
          <g fill="none" stroke="#f0c35a" stroke-width="14" stroke-linecap="round">
            <path d="M556 438c28-12 68-10 116 18"/>
            <path d="M538 492c38-24 100-24 152 12"/>
            <path d="M616 536c46-18 110-10 146 20"/>
            <path d="M694 432c46-12 84 6 112 34"/>
            <path d="M740 502c38-10 68 2 92 28"/>
          </g>
          <g fill="#db8c53">
            <path d="M602 436c18-18 44-8 42 18-2 22-34 38-58 28-22-8-10-30 16-46z"/>
            <path d="M782 500c18-18 44-8 42 18-2 22-34 38-58 28-22-8-10-30 16-46z"/>
            <path d="M680 536c18-18 44-8 42 18-2 22-34 38-58 28-22-8-10-30 16-46z"/>
          </g>
          <g fill="#68c06b"><circle cx="822" cy="430" r="11"/><circle cx="844" cy="449" r="8"/><circle cx="798" cy="562" r="10"/></g>
          <path d="M836 286l72 78" stroke="#8c6d4a" stroke-width="12" stroke-linecap="round"/>
          <path d="M890 302l54 84" stroke="#8c6d4a" stroke-width="12" stroke-linecap="round"/>
        </g>
        
    <g opacity=".92">
      <circle cx="1010" cy="660" r="15" fill="#a7e163"/>
      <circle cx="1035" cy="640" r="10" fill="#7bc96f"/>
      <circle cx="995" cy="635" r="10" fill="#7bc96f"/>
      <ellipse cx="315" cy="700" rx="26" ry="10" fill="#8bc34a" transform="rotate(-16 315 700)"/>
      <ellipse cx="343" cy="680" rx="22" ry="9" fill="#8bc34a" transform="rotate(24 343 680)"/>
    </g>
    
    </svg>